<svg xmlns="http://www.w3.org/2000/svg" xmlns:xlink="http://www.w3.org/1999/xlink" width="340" zoomAndPan="magnify" viewBox="0 0 255 269.999989" height="360" preserveAspectRatio="xMidYMid meet" version="1.0"><path fill="#caddff" d="M 57.992188 21.019531 C 40.542969 27.78125 26.550781 42.523438 21.179688 52.972656 C 0.0078125 94.160156 4.925781 181.089844 42.164062 227.15625 C 50.878906 237.9375 95.101562 269.996094 157.921875 258.859375 C 213.453125 249.011719 246.214844 195.308594 251.007812 149.695312 C 254.980469 111.90625 241.558594 62.242188 207.953125 44.203125 C 186.820312 32.855469 193.21875 40.796875 145.15625 31 C 103.558594 22.515625 79.339844 12.746094 57.992188 21.019531 " fill-opacity="1" fill-rule="nonzero"/><path fill="#5479f7" d="M 14.488281 192.550781 L 155.136719 173.023438 C 158.667969 172.574219 161.3125 169.574219 161.3125 166.019531 L 163.242188 68.082031 C 163.242188 68.082031 160.035156 65.773438 158.21875 64.886719 C 157.292969 64.4375 156.230469 64.242188 155.121094 64.382812 L 14.894531 82.234375 C 11.363281 82.6875 8.714844 85.683594 8.714844 89.238281 L 8.714844 185.4375 C 8.714844 187.15625 9.503906 188.675781 10.722656 189.675781 C 11.84375 190.59375 14.488281 192.550781 14.488281 192.550781 " fill-opacity="1" fill-rule="nonzero"/><path fill="#99b9ff" d="M 18.78125 193.851562 L 159.007812 176 C 162.539062 175.550781 165.183594 172.550781 165.183594 168.996094 L 165.183594 72.800781 C 165.183594 69.492188 162.277344 66.9375 158.996094 67.359375 L 18.769531 85.210938 C 15.234375 85.660156 12.589844 88.660156 12.589844 92.214844 L 12.589844 188.410156 C 12.589844 191.714844 15.496094 194.269531 18.78125 193.851562 " fill-opacity="1" fill-rule="nonzero"/><path fill="#000000" d="M 165.1875 94.519531 C 164.941406 94.519531 164.746094 94.320312 164.746094 94.078125 L 164.746094 72.800781 C 164.746094 71.355469 164.121094 69.976562 163.035156 69.015625 C 161.945312 68.054688 160.488281 67.613281 159.050781 67.796875 L 48.960938 81.8125 C 48.722656 81.84375 48.496094 81.671875 48.464844 81.429688 C 48.4375 81.1875 48.605469 80.96875 48.847656 80.9375 L 158.941406 66.921875 C 160.632812 66.707031 162.335938 67.226562 163.617188 68.355469 C 164.894531 69.480469 165.628906 71.101562 165.628906 72.800781 L 165.628906 94.078125 C 165.628906 94.320312 165.429688 94.519531 165.1875 94.519531 " fill-opacity="1" fill-rule="nonzero"/><path fill="#caddff" d="M 21.761719 189.886719 L 155.65625 172.839844 C 158.222656 172.515625 160.148438 170.332031 160.148438 167.746094 L 160.148438 74.957031 C 160.148438 72.75 158.207031 71.042969 156.011719 71.324219 L 22.117188 88.371094 C 19.550781 88.699219 17.625 90.878906 17.625 93.464844 L 17.625 186.253906 C 17.625 188.460938 19.566406 190.167969 21.761719 189.886719 " fill-opacity="1" fill-rule="nonzero"/><path fill="#99b9ff" d="M 100.589844 250.503906 L 244.804688 231.9375 C 245.9375 231.792969 246.574219 230.847656 246.558594 229.90625 C 246.546875 229.253906 246.496094 224.671875 246.496094 224.671875 L 170.238281 181.148438 C 166.417969 178.972656 161.476562 178.128906 157.113281 178.6875 L 16.222656 197.398438 C 15.367188 197.511719 13.121094 197.691406 12.78125 198.484375 L 12.554688 199.019531 C 12.554688 199.019531 12.675781 202.84375 12.625 203.738281 C 12.589844 204.433594 12.902344 205.15625 13.636719 205.570312 L 87.976562 248.007812 C 91.796875 250.1875 96.226562 251.0625 100.589844 250.503906 " fill-opacity="1" fill-rule="nonzero"/><path fill="#ffffff" d="M 100.589844 245.40625 L 244.292969 226.871094 C 246.199219 226.628906 246.703125 224.101562 245.03125 223.148438 L 171.089844 180.988281 C 167.269531 178.808594 162.84375 177.933594 158.476562 178.492188 L 14.773438 197.023438 C 12.867188 197.265625 12.363281 199.792969 14.035156 200.746094 L 87.976562 242.90625 C 91.796875 245.085938 96.226562 245.960938 100.589844 245.40625 " fill-opacity="1" fill-rule="nonzero"/><path fill="#000000" d="M 98.050781 246.007812 C 94.460938 246.007812 90.882812 245.070312 87.757812 243.289062 L 13.816406 201.128906 C 12.886719 200.597656 12.421875 199.582031 12.628906 198.535156 C 12.835938 197.488281 13.65625 196.722656 14.71875 196.585938 L 19.492188 195.972656 C 19.734375 195.9375 19.953125 196.109375 19.984375 196.351562 C 20.019531 196.59375 19.847656 196.8125 19.605469 196.84375 L 14.832031 197.460938 C 14.007812 197.566406 13.601562 198.171875 13.496094 198.707031 C 13.390625 199.238281 13.53125 199.953125 14.253906 200.363281 L 88.195312 242.523438 C 91.910156 244.640625 96.292969 245.507812 100.53125 244.96875 L 193.671875 232.957031 C 193.910156 232.925781 194.136719 233.09375 194.164062 233.335938 C 194.199219 233.578125 194.027344 233.800781 193.785156 233.828125 L 100.644531 245.839844 C 99.785156 245.953125 98.917969 246.007812 98.050781 246.007812 " fill-opacity="1" fill-rule="nonzero"/><path fill="#000000" d="M 193.730469 194.339844 C 193.65625 194.339844 193.582031 194.320312 193.511719 194.28125 L 170.871094 181.371094 C 167.15625 179.253906 162.773438 178.386719 158.535156 178.929688 L 102.464844 186.160156 C 102.226562 186.1875 102.003906 186.019531 101.972656 185.777344 C 101.941406 185.535156 102.109375 185.316406 102.351562 185.285156 L 158.417969 178.054688 C 162.851562 177.488281 167.425781 178.394531 171.304688 180.605469 L 193.949219 193.515625 C 194.160156 193.636719 194.234375 193.902344 194.113281 194.113281 C 194.03125 194.257812 193.882812 194.339844 193.730469 194.339844 " fill-opacity="1" fill-rule="nonzero"/><path fill="#99b9ff" d="M 72.453125 222 L 197.0625 205.8125 C 198.785156 205.59375 199.238281 203.3125 197.730469 202.453125 L 168.429688 185.914062 C 164.980469 183.945312 160.980469 183.15625 157.039062 183.660156 L 32.429688 199.847656 C 30.707031 200.066406 30.253906 202.347656 31.761719 203.207031 L 61.0625 219.746094 C 64.511719 221.714844 68.511719 222.503906 72.453125 222 " fill-opacity="1" fill-rule="nonzero"/><path fill="#000000" d="M 76.898438 210.011719 C 76.679688 210.011719 76.492188 209.851562 76.460938 209.628906 C 76.429688 209.390625 76.597656 209.167969 76.839844 209.136719 L 139.058594 200.761719 C 139.300781 200.730469 139.523438 200.898438 139.554688 201.140625 C 139.589844 201.382812 139.417969 201.601562 139.175781 201.636719 L 76.957031 210.007812 C 76.9375 210.011719 76.914062 210.011719 76.898438 210.011719 " fill-opacity="1" fill-rule="nonzero"/><path fill="#000000" d="M 117.226562 212.542969 C 117.011719 212.542969 116.820312 212.382812 116.789062 212.164062 C 116.757812 211.921875 116.925781 211.699219 117.167969 211.667969 L 149.476562 207.277344 C 149.714844 207.246094 149.941406 207.414062 149.972656 207.65625 C 150.007812 207.894531 149.835938 208.117188 149.597656 208.152344 L 117.289062 212.539062 C 117.265625 212.542969 117.246094 212.542969 117.226562 212.542969 " fill-opacity="1" fill-rule="nonzero"/><path fill="#ffffff" d="M 151.542969 173.507812 L 27.894531 189.691406 L 27.894531 55.140625 L 151.542969 38.957031 L 151.542969 173.507812 " fill-opacity="1" fill-rule="nonzero"/><path fill="#99b9ff" d="M 115.949219 58.617188 L 62.78125 65.570312 L 62.78125 56.449219 L 115.949219 49.492188 L 115.949219 58.617188 " fill-opacity="1" fill-rule="nonzero"/><path fill="#99b9ff" d="M 110.144531 171.75 L 38.84375 181.082031 L 38.84375 171.960938 L 110.144531 162.628906 L 110.144531 171.75 " fill-opacity="1" fill-rule="nonzero"/><path fill="#99b9ff" d="M 138.664062 168.019531 L 117.171875 170.832031 L 117.171875 161.707031 L 138.664062 158.898438 L 138.664062 168.019531 " fill-opacity="1" fill-rule="nonzero"/><path fill="#caddff" d="M 142.535156 69.652344 L 38.84375 83.21875 L 38.84375 74.925781 L 142.535156 61.355469 L 142.535156 69.652344 " fill-opacity="1" fill-rule="nonzero"/><path fill="#99b9ff" d="M 142.535156 154.035156 Z M 39.285156 75.3125 L 39.285156 167.101562 L 142.09375 153.648438 L 142.09375 61.855469 Z M 38.84375 168.046875 C 38.738281 168.046875 38.636719 168.007812 38.554688 167.9375 C 38.460938 167.851562 38.40625 167.730469 38.40625 167.605469 L 38.40625 74.925781 C 38.40625 74.703125 38.570312 74.519531 38.789062 74.488281 L 142.476562 60.917969 C 142.601562 60.902344 142.730469 60.941406 142.824219 61.027344 C 142.917969 61.109375 142.976562 61.230469 142.976562 61.355469 L 142.976562 154.035156 C 142.976562 154.257812 142.8125 154.445312 142.59375 154.472656 L 38.902344 168.042969 C 38.882812 168.042969 38.863281 168.046875 38.84375 168.046875 " fill-opacity="1" fill-rule="nonzero"/><path fill="#99b9ff" d="M 113.21875 158.191406 C 112.976562 158.191406 112.777344 157.996094 112.777344 157.75 L 112.777344 65.234375 C 112.777344 64.992188 112.976562 64.796875 113.21875 64.796875 C 113.460938 64.796875 113.65625 64.992188 113.65625 65.234375 L 113.65625 157.75 C 113.65625 157.996094 113.460938 158.191406 113.21875 158.191406 " fill-opacity="1" fill-rule="nonzero"/><path fill="#caddff" d="M 110.144531 87.054688 L 41.902344 95.984375 L 41.902344 87.902344 L 110.144531 78.96875 L 110.144531 87.054688 " fill-opacity="1" fill-rule="nonzero"/><path fill="#caddff" d="M 110.144531 98.25 L 41.902344 107.183594 L 41.902344 99.097656 L 110.144531 90.164062 L 110.144531 98.25 " fill-opacity="1" fill-rule="nonzero"/><path fill="#caddff" d="M 110.144531 108.828125 L 41.902344 117.757812 L 41.902344 109.671875 L 110.144531 100.742188 L 110.144531 108.828125 " fill-opacity="1" fill-rule="nonzero"/><path fill="#caddff" d="M 110.144531 120.023438 L 41.902344 128.953125 L 41.902344 120.867188 L 110.144531 111.9375 L 110.144531 120.023438 " fill-opacity="1" fill-rule="nonzero"/><path fill="#caddff" d="M 110.144531 130.597656 L 41.902344 139.527344 L 41.902344 131.441406 L 110.144531 122.511719 L 110.144531 130.597656 " fill-opacity="1" fill-rule="nonzero"/><path fill="#caddff" d="M 110.144531 141.171875 L 41.902344 150.101562 L 41.902344 142.015625 L 110.144531 133.085938 L 110.144531 141.171875 " fill-opacity="1" fill-rule="nonzero"/><path fill="#caddff" d="M 110.144531 152.367188 L 41.902344 161.296875 L 41.902344 153.210938 L 110.144531 144.28125 L 110.144531 152.367188 " fill-opacity="1" fill-rule="nonzero"/><path fill="#caddff" d="M 138.664062 83.632812 L 117.171875 86.445312 L 117.171875 78.359375 L 138.664062 75.546875 L 138.664062 83.632812 " fill-opacity="1" fill-rule="nonzero"/><path fill="#caddff" d="M 138.664062 94.832031 L 117.171875 97.644531 L 117.171875 89.558594 L 138.664062 86.746094 L 138.664062 94.832031 " fill-opacity="1" fill-rule="nonzero"/><path fill="#caddff" d="M 138.664062 105.40625 L 117.171875 108.21875 L 117.171875 100.132812 L 138.664062 97.320312 L 138.664062 105.40625 " fill-opacity="1" fill-rule="nonzero"/><path fill="#caddff" d="M 138.664062 116.601562 L 117.171875 119.414062 L 117.171875 111.328125 L 138.664062 108.515625 L 138.664062 116.601562 " fill-opacity="1" fill-rule="nonzero"/><path fill="#caddff" d="M 138.664062 127.175781 L 117.171875 129.988281 L 117.171875 121.902344 L 138.664062 119.089844 L 138.664062 127.175781 " fill-opacity="1" fill-rule="nonzero"/><path fill="#caddff" d="M 138.664062 137.75 L 117.171875 140.5625 L 117.171875 132.476562 L 138.664062 129.664062 L 138.664062 137.75 " fill-opacity="1" fill-rule="nonzero"/><path fill="#caddff" d="M 138.664062 148.945312 L 117.171875 151.757812 L 117.171875 143.671875 L 138.664062 140.859375 L 138.664062 148.945312 " fill-opacity="1" fill-rule="nonzero"/><path fill="#5479f7" d="M 92.414062 142.171875 L 27.535156 150.628906 C 26.351562 150.78125 25.566406 151.714844 25.566406 152.96875 L 25.566406 200.300781 C 25.566406 202.378906 27.652344 204.316406 29.617188 204.0625 L 94.496094 195.605469 C 95.675781 195.449219 96.464844 194.515625 96.464844 193.261719 L 96.464844 145.933594 C 96.464844 143.851562 94.378906 141.914062 92.414062 142.171875 " fill-opacity="1" fill-rule="nonzero"/><path fill="#000000" d="M 92.414062 142.171875 L 92.472656 142.609375 L 27.59375 151.066406 C 26.628906 151.191406 26.007812 151.9375 26.007812 152.96875 L 26.007812 200.296875 C 26.007812 201.195312 26.464844 202.128906 27.234375 202.804688 C 27.941406 203.425781 28.789062 203.722656 29.558594 203.625 L 94.4375 195.167969 C 95.402344 195.042969 96.023438 194.292969 96.023438 193.261719 L 96.023438 145.933594 C 96.023438 145.039062 95.5625 144.101562 94.792969 143.425781 C 94.089844 142.804688 93.238281 142.507812 92.472656 142.609375 Z M 29.261719 204.523438 C 28.363281 204.523438 27.429688 204.152344 26.652344 203.464844 C 25.699219 202.628906 25.125 201.445312 25.125 200.296875 L 25.125 152.96875 C 25.125 151.492188 26.070312 150.375 27.476562 150.191406 L 92.355469 141.734375 C 93.378906 141.601562 94.480469 141.976562 95.375 142.765625 C 96.332031 143.605469 96.902344 144.789062 96.902344 145.933594 L 96.902344 193.261719 C 96.902344 194.742188 95.957031 195.859375 94.550781 196.042969 L 29.671875 204.496094 C 29.539062 204.515625 29.398438 204.523438 29.261719 204.523438 " fill-opacity="1" fill-rule="nonzero"/><path fill="#99b9ff" d="M 51.023438 189.933594 L 30.980469 192.550781 C 30.589844 192.601562 30.332031 192.910156 30.332031 193.324219 L 30.332031 195.65625 C 30.332031 196.34375 31.015625 196.980469 31.664062 196.894531 L 51.710938 194.277344 C 52.097656 194.226562 52.359375 193.917969 52.359375 193.507812 L 52.359375 191.171875 C 52.359375 190.484375 51.671875 189.847656 51.023438 189.933594 " fill-opacity="1" fill-rule="nonzero"/><path fill="#99b9ff" d="M 76.644531 186.460938 L 67.355469 187.738281 C 66.96875 187.789062 66.710938 188.097656 66.710938 188.507812 L 66.710938 190.839844 C 66.710938 191.527344 67.402344 192.164062 68.050781 192.074219 L 77.339844 190.796875 C 77.726562 190.742188 77.980469 190.4375 77.980469 190.027344 L 77.980469 187.695312 C 77.980469 187.007812 77.292969 186.371094 76.644531 186.460938 " fill-opacity="1" fill-rule="nonzero"/><path fill="#caddff" d="M 40.984375 160.597656 L 31.265625 161.867188 C 30.703125 161.941406 30.332031 162.382812 30.332031 162.976562 L 30.332031 171.179688 C 30.332031 172.167969 31.320312 173.085938 32.25 172.964844 L 41.972656 171.695312 C 42.53125 171.625 42.902344 171.179688 42.902344 170.585938 L 42.902344 162.382812 C 42.902344 161.394531 41.917969 160.480469 40.984375 160.597656 " fill-opacity="1" fill-rule="nonzero"/><path fill="#99b9ff" d="M 40.984375 176.523438 L 31.265625 177.789062 C 30.703125 177.863281 30.332031 178.304688 30.332031 178.898438 L 30.332031 183.273438 C 30.332031 184.257812 31.320312 185.175781 32.25 185.054688 L 41.972656 183.789062 C 42.53125 183.714844 42.902344 183.273438 42.902344 182.679688 L 42.902344 178.304688 C 42.902344 177.320312 41.917969 176.402344 40.984375 176.523438 " fill-opacity="1" fill-rule="nonzero"/><path fill="#99b9ff" d="M 57.25 174.371094 L 47.527344 175.640625 C 46.96875 175.714844 46.59375 176.15625 46.59375 176.75 L 46.59375 181.121094 C 46.59375 182.109375 47.585938 183.027344 48.515625 182.90625 L 58.238281 181.636719 C 58.796875 181.566406 59.167969 181.121094 59.167969 180.527344 L 59.167969 176.15625 C 59.167969 175.171875 58.179688 174.253906 57.25 174.371094 " fill-opacity="1" fill-rule="nonzero"/><path fill="#99b9ff" d="M 73.515625 172.222656 L 63.792969 173.492188 C 63.234375 173.5625 62.859375 174.007812 62.859375 174.601562 L 62.859375 178.972656 C 62.859375 179.957031 63.847656 180.875 64.78125 180.753906 L 74.5 179.488281 C 75.0625 179.414062 75.433594 178.972656 75.433594 178.378906 L 75.433594 174.007812 C 75.433594 173.019531 74.445312 172.101562 73.515625 172.222656 " fill-opacity="1" fill-rule="nonzero"/><path fill="#99b9ff" d="M 89.78125 170.074219 L 80.058594 171.339844 C 79.496094 171.414062 79.125 171.855469 79.125 172.449219 L 79.125 176.824219 C 79.125 177.808594 80.113281 178.726562 81.042969 178.605469 L 90.765625 177.339844 C 91.328125 177.265625 91.699219 176.824219 91.699219 176.230469 L 91.699219 171.855469 C 91.699219 170.871094 90.710938 169.953125 89.78125 170.074219 " fill-opacity="1" fill-rule="nonzero"/><path fill="#ffffff" d="M 234.660156 238.90625 L 236.230469 249.921875 L 240.242188 249.9375 L 240.433594 239.101562 L 234.660156 238.90625 " fill-opacity="1" fill-rule="nonzero"/><path fill="#000000" d="M 236.613281 249.480469 L 239.8125 249.492188 L 239.984375 239.527344 L 235.171875 239.363281 Z M 240.246094 250.375 C 240.242188 250.375 240.242188 250.375 240.242188 250.375 L 236.230469 250.359375 C 236.007812 250.359375 235.824219 250.199219 235.796875 249.980469 L 234.226562 238.96875 C 234.207031 238.839844 234.246094 238.707031 234.332031 238.613281 C 234.421875 238.515625 234.550781 238.460938 234.675781 238.464844 L 240.449219 238.664062 C 240.6875 238.671875 240.878906 238.871094 240.875 239.109375 L 240.683594 249.945312 C 240.679688 250.183594 240.484375 250.375 240.246094 250.375 " fill-opacity="1" fill-rule="nonzero"/><path fill="#ffffff" d="M 236.097656 260.449219 C 237.667969 260.621094 240.015625 260.6875 243.148438 260.410156 C 244.269531 260.3125 245.0625 259.273438 244.878906 258.160156 C 244.394531 255.171875 243.035156 249.898438 240.894531 247.480469 L 239.835938 248.988281 L 239.210938 247.429688 C 239.109375 247.261719 236.449219 247.152344 236.390625 247.46875 L 236.230469 248.988281 L 234.71875 247.296875 L 234.804688 252.851562 C 234.8125 253.464844 234.753906 254.078125 234.628906 254.679688 L 234.234375 256.601562 C 233.996094 257.757812 234.289062 258.980469 235.097656 259.84375 C 235.414062 260.179688 235.765625 260.414062 236.097656 260.449219 " fill-opacity="1" fill-rule="nonzero"/><path fill="#000000" d="M 236.140625 260.011719 C 237.476562 260.15625 239.773438 260.265625 243.109375 259.972656 C 243.523438 259.933594 243.890625 259.734375 244.148438 259.40625 C 244.402344 259.074219 244.511719 258.648438 244.445312 258.234375 C 244.019531 255.628906 242.820312 250.757812 240.917969 248.210938 L 240.195312 249.242188 C 240.105469 249.375 239.945312 249.445312 239.785156 249.425781 C 239.625 249.40625 239.488281 249.300781 239.425781 249.152344 L 238.875 247.78125 C 238.425781 247.703125 237.261719 247.675781 236.804688 247.75 L 236.667969 249.035156 C 236.648438 249.207031 236.53125 249.355469 236.363281 249.40625 C 236.199219 249.460938 236.015625 249.410156 235.902344 249.28125 L 235.179688 248.46875 L 235.242188 252.847656 C 235.253906 253.488281 235.191406 254.136719 235.0625 254.769531 L 234.664062 256.691406 C 234.445312 257.742188 234.730469 258.808594 235.417969 259.542969 C 235.679688 259.820312 235.941406 259.992188 236.140625 260.011719 Z M 239.140625 261.039062 C 237.816406 261.039062 236.789062 260.96875 236.046875 260.890625 C 235.628906 260.84375 235.191406 260.585938 234.777344 260.144531 C 233.890625 259.199219 233.527344 257.84375 233.800781 256.511719 L 234.199219 254.589844 C 234.316406 254.023438 234.371094 253.441406 234.363281 252.859375 L 234.277344 247.304688 C 234.277344 247.117188 234.386719 246.953125 234.558594 246.886719 C 234.730469 246.820312 234.925781 246.867188 235.046875 247.003906 L 235.898438 247.953125 L 235.953125 247.421875 C 235.957031 247.410156 235.957031 247.402344 235.957031 247.390625 C 236.027344 247.003906 236.460938 246.921875 236.605469 246.894531 C 236.769531 246.863281 239.257812 246.65625 239.585938 247.203125 C 239.597656 247.222656 239.609375 247.246094 239.617188 247.265625 L 239.941406 248.070312 L 240.535156 247.226562 C 240.609375 247.117188 240.734375 247.050781 240.871094 247.039062 C 241.003906 247.03125 241.132812 247.085938 241.226562 247.1875 C 243.984375 250.308594 245.1875 257.304688 245.3125 258.089844 C 245.421875 258.75 245.25 259.425781 244.84375 259.945312 C 244.433594 260.472656 243.847656 260.789062 243.1875 260.847656 C 241.617188 260.988281 240.273438 261.039062 239.140625 261.039062 " fill-opacity="1" fill-rule="nonzero"/><path fill="#000000" d="M 238.964844 259.070312 C 237.203125 259.070312 236.117188 258.859375 236.046875 258.84375 C 235.808594 258.792969 235.652344 258.5625 235.703125 258.324219 C 235.75 258.085938 235.984375 257.929688 236.21875 257.980469 C 236.25 257.984375 239 258.523438 242.847656 257.847656 C 243.089844 257.804688 243.316406 257.964844 243.359375 258.203125 C 243.402344 258.445312 243.238281 258.671875 243 258.714844 C 241.445312 258.988281 240.074219 259.070312 238.964844 259.070312 " fill-opacity="1" fill-rule="nonzero"/><path fill="#000000" d="M 241.324219 254.847656 L 237.683594 254.847656 C 237.4375 254.847656 237.242188 254.652344 237.242188 254.40625 C 237.242188 254.164062 237.4375 253.96875 237.683594 253.96875 L 241.324219 253.96875 C 241.566406 253.96875 241.765625 254.164062 241.765625 254.40625 C 241.765625 254.652344 241.566406 254.847656 241.324219 254.847656 " fill-opacity="1" fill-rule="nonzero"/><path fill="#ffffff" d="M 205.851562 239.890625 L 204.441406 252.726562 L 199.039062 253.859375 L 199.367188 238.804688 L 205.851562 239.890625 " fill-opacity="1" fill-rule="nonzero"/><path fill="#000000" d="M 199.796875 239.324219 L 199.492188 253.3125 L 204.035156 252.359375 L 205.367188 240.253906 Z M 199.039062 254.296875 C 198.9375 254.296875 198.835938 254.261719 198.757812 254.195312 C 198.65625 254.109375 198.59375 253.980469 198.597656 253.847656 L 198.929688 238.796875 C 198.929688 238.667969 198.988281 238.546875 199.085938 238.464844 C 199.183594 238.382812 199.3125 238.347656 199.441406 238.371094 L 205.925781 239.453125 C 206.15625 239.492188 206.316406 239.707031 206.289062 239.9375 L 204.878906 252.773438 C 204.855469 252.964844 204.714844 253.121094 204.527344 253.15625 L 199.128906 254.289062 C 199.097656 254.296875 199.070312 254.296875 199.039062 254.296875 " fill-opacity="1" fill-rule="nonzero"/><path fill="#ffffff" d="M 206.722656 258.847656 C 206.839844 256.597656 206.84375 252.453125 205.476562 250.457031 L 201.15625 251.996094 L 201.15625 251.074219 C 201.15625 250.777344 200.941406 250.53125 200.671875 250.515625 L 198.265625 250.378906 C 197.367188 250.328125 196.46875 250.511719 195.648438 250.917969 C 193.226562 252.105469 185.859375 255.160156 184.835938 258.59375 C 184.535156 259.609375 185.324219 260.621094 186.382812 260.652344 C 188.808594 260.722656 194.636719 260.796875 205.101562 260.441406 C 205.972656 260.410156 206.675781 259.71875 206.722656 258.847656 " fill-opacity="1" fill-rule="nonzero"/><path fill="#000000" d="M 197.972656 250.8125 C 197.242188 250.8125 196.511719 250.984375 195.839844 251.3125 C 195.546875 251.457031 195.1875 251.625 194.769531 251.820312 C 191.953125 253.140625 186.097656 255.886719 185.257812 258.722656 C 185.15625 259.054688 185.21875 259.410156 185.429688 259.699219 C 185.652344 260.011719 186.011719 260.199219 186.394531 260.210938 C 188.929688 260.285156 194.734375 260.355469 205.085938 260 C 205.734375 259.976562 206.246094 259.472656 206.28125 258.824219 C 206.46875 255.285156 206.105469 252.46875 205.285156 250.996094 L 201.300781 252.414062 C 201.167969 252.460938 201.015625 252.441406 200.898438 252.355469 C 200.78125 252.273438 200.714844 252.140625 200.714844 251.996094 L 200.714844 251.074219 C 200.714844 251.003906 200.671875 250.957031 200.644531 250.957031 L 198.234375 250.820312 C 198.148438 250.8125 198.058594 250.8125 197.972656 250.8125 Z M 191.214844 261.152344 C 188.996094 261.152344 187.410156 261.121094 186.367188 261.09375 C 185.71875 261.074219 185.097656 260.746094 184.714844 260.21875 C 184.34375 259.703125 184.234375 259.066406 184.410156 258.46875 C 185.367188 255.257812 191.242188 252.503906 194.394531 251.023438 C 194.804688 250.832031 195.164062 250.664062 195.453125 250.523438 C 196.339844 250.085938 197.320312 249.882812 198.285156 249.9375 L 200.695312 250.078125 C 201.199219 250.105469 201.59375 250.542969 201.59375 251.074219 L 201.59375 251.371094 L 205.324219 250.042969 C 205.511719 249.976562 205.722656 250.046875 205.835938 250.210938 C 207.277344 252.308594 207.285156 256.539062 207.160156 258.871094 C 207.101562 259.980469 206.222656 260.84375 205.113281 260.878906 C 198.976562 261.089844 194.429688 261.152344 191.214844 261.152344 " fill-opacity="1" fill-rule="nonzero"/><path fill="#000000" d="M 192.886719 259.019531 C 189.667969 259.019531 187.636719 258.871094 187.597656 258.867188 C 187.355469 258.847656 187.175781 258.636719 187.195312 258.394531 C 187.210938 258.152344 187.425781 257.96875 187.667969 257.988281 C 187.742188 257.992188 195.339844 258.546875 204.527344 257.484375 C 204.765625 257.453125 204.984375 257.628906 205.015625 257.871094 C 205.042969 258.113281 204.871094 258.328125 204.628906 258.355469 C 200.101562 258.882812 195.953125 259.019531 192.886719 259.019531 " fill-opacity="1" fill-rule="nonzero"/><path fill="#000000" d="M 194.222656 255.34375 C 194.085938 255.34375 193.953125 255.28125 193.867188 255.160156 C 193.726562 254.964844 193.769531 254.6875 193.964844 254.546875 L 198.125 251.554688 C 198.324219 251.414062 198.597656 251.457031 198.742188 251.65625 C 198.882812 251.851562 198.839844 252.128906 198.640625 252.269531 L 194.484375 255.261719 C 194.402344 255.316406 194.3125 255.34375 194.222656 255.34375 " fill-opacity="1" fill-rule="nonzero"/><path fill="#5479f7" d="M 204.167969 156.597656 C 204.167969 156.597656 196.425781 209.695312 198.074219 245.132812 L 200.488281 245.375 C 201.789062 245.503906 203.09375 245.539062 204.398438 245.472656 L 206.6875 245.355469 C 206.6875 245.355469 215.917969 191.519531 220.527344 182.582031 C 220.527344 182.582031 233.0625 230.457031 233.546875 243.425781 C 233.546875 243.425781 239.117188 243.988281 241.335938 243.1875 C 242.53125 230.671875 242.875 217.714844 242.933594 209.582031 C 243.105469 186.300781 240.878906 175.726562 239.660156 170.710938 C 238.542969 166.101562 237.339844 162.359375 236.460938 159.828125 L 233.53125 151.46875 L 204.167969 156.597656 " fill-opacity="1" fill-rule="nonzero"/><path fill="#000000" d="M 198.5 244.734375 L 200.53125 244.9375 C 201.804688 245.066406 203.097656 245.097656 204.375 245.03125 L 206.3125 244.933594 C 207.183594 239.890625 215.691406 191 220.136719 182.378906 C 220.21875 182.21875 220.394531 182.125 220.578125 182.144531 C 220.757812 182.164062 220.90625 182.292969 220.953125 182.46875 C 221.078125 182.945312 233.261719 229.609375 233.96875 243.023438 C 235.183594 243.125 239.03125 243.386719 240.925781 242.855469 C 242.171875 229.609375 242.445312 216.335938 242.492188 209.578125 C 242.65625 187.519531 240.710938 176.890625 239.234375 170.8125 C 238.34375 167.160156 237.273438 163.511719 236.046875 159.972656 L 233.238281 151.964844 L 204.554688 156.972656 C 203.925781 161.414062 197.003906 211.15625 198.5 244.734375 Z M 203.089844 245.945312 C 202.207031 245.945312 201.324219 245.902344 200.445312 245.8125 L 198.03125 245.570312 C 197.8125 245.550781 197.644531 245.371094 197.632812 245.15625 C 196.003906 210.078125 203.652344 157.0625 203.730469 156.53125 C 203.757812 156.34375 203.902344 156.195312 204.089844 156.160156 L 233.457031 151.035156 C 233.667969 150.996094 233.875 151.117188 233.945312 151.324219 L 236.875 159.679688 C 238.113281 163.25 239.191406 166.925781 240.089844 170.605469 C 241.574219 176.730469 243.539062 187.429688 243.375 209.582031 C 243.324219 216.40625 243.050781 229.855469 241.777344 243.230469 C 241.757812 243.398438 241.644531 243.542969 241.488281 243.601562 C 239.195312 244.425781 233.734375 243.890625 233.5 243.863281 C 233.28125 243.84375 233.113281 243.664062 233.105469 243.441406 C 232.671875 231.816406 222.355469 191.414062 220.414062 183.898438 C 215.746094 195.328125 207.210938 244.914062 207.121094 245.429688 C 207.085938 245.632812 206.914062 245.789062 206.710938 245.796875 L 204.417969 245.910156 C 203.980469 245.933594 203.535156 245.945312 203.089844 245.945312 " fill-opacity="1" fill-rule="nonzero"/><path fill="#000000" d="M 220.960938 184.578125 C 220.769531 184.578125 220.589844 184.449219 220.539062 184.253906 L 219.25 179.566406 C 218.945312 178.460938 218.058594 177.625 216.933594 177.394531 L 215.730469 177.144531 C 215.492188 177.097656 215.339844 176.863281 215.386719 176.625 C 215.4375 176.386719 215.667969 176.234375 215.90625 176.28125 L 217.113281 176.53125 C 218.5625 176.832031 219.707031 177.902344 220.101562 179.332031 L 221.386719 184.019531 C 221.453125 184.253906 221.3125 184.496094 221.078125 184.558594 C 221.039062 184.570312 221 184.578125 220.960938 184.578125 " fill-opacity="1" fill-rule="nonzero"/><path fill="#000000" d="M 237.972656 175.847656 C 237.949219 175.847656 237.925781 175.84375 237.898438 175.839844 C 230.679688 174.636719 229.203125 168.886719 229.191406 168.828125 C 229.132812 168.589844 229.28125 168.351562 229.515625 168.296875 C 229.75 168.238281 229.988281 168.382812 230.046875 168.617188 C 230.097656 168.832031 231.417969 173.867188 238.042969 174.972656 C 238.285156 175.011719 238.445312 175.238281 238.40625 175.480469 C 238.371094 175.695312 238.183594 175.847656 237.972656 175.847656 " fill-opacity="1" fill-rule="nonzero"/><path fill="#000000" d="M 203.816406 172.355469 C 203.648438 172.355469 203.484375 172.257812 203.414062 172.09375 C 203.316406 171.871094 203.417969 171.609375 203.640625 171.511719 C 207.351562 169.902344 207.261719 166.457031 207.261719 166.421875 C 207.25 166.175781 207.441406 165.972656 207.683594 165.964844 C 207.925781 165.953125 208.132812 166.144531 208.140625 166.386719 C 208.144531 166.429688 208.246094 170.472656 203.992188 172.320312 C 203.933594 172.347656 203.875 172.355469 203.816406 172.355469 " fill-opacity="1" fill-rule="nonzero"/><path fill="#000000" d="M 204.789062 112.398438 C 209.910156 111.824219 220.839844 110.789062 228.355469 111.476562 C 230.625 111.683594 233.898438 113.070312 235.625 114.558594 C 240.707031 118.945312 250.300781 128.605469 251.902344 140.199219 C 252.136719 141.890625 251.027344 143.476562 249.359375 143.847656 L 240.5 145.8125 C 240.5 145.8125 244.03125 159.730469 243.746094 162.136719 C 243.460938 164.539062 236.144531 168.628906 226.988281 165.273438 C 219.847656 162.65625 209.746094 160.578125 203.332031 162.835938 C 203.269531 162.855469 202.65625 167.785156 202.59375 167.796875 C 200.535156 168.09375 198.460938 167.292969 198.507812 164.398438 L 199.484375 149.363281 L 187.746094 147.816406 L 186.695312 147.464844 C 183.519531 146.410156 181.878906 142.90625 183.105469 139.792969 C 185.863281 132.773438 190.023438 121.40625 197.734375 115.125 C 199.382812 113.785156 202.675781 112.640625 204.789062 112.398438 " fill-opacity="1" fill-rule="nonzero"/><path fill="#99b9ff" d="M 210.128906 158.664062 L 191.777344 158.664062 C 190.984375 158.664062 190.289062 158.121094 190.097656 157.347656 L 183.75 131.75 C 183.476562 130.65625 184.304688 129.597656 185.429688 129.597656 L 203.78125 129.597656 C 204.578125 129.597656 205.269531 130.144531 205.460938 130.914062 L 211.8125 156.511719 C 212.082031 157.605469 211.253906 158.664062 210.128906 158.664062 " fill-opacity="1" fill-rule="nonzero"/><path fill="#ffffff" d="M 186.730469 142.683594 L 187.347656 145.265625 L 189.566406 144.527344 C 190.789062 144.117188 191.960938 143.578125 193.0625 142.910156 L 194.335938 142.136719 C 195.285156 141.5625 196.519531 142.011719 196.890625 143.058594 C 197.671875 145.285156 197.519531 149.019531 189.53125 151.363281 C 185.117188 152.65625 183.855469 147.007812 184.425781 143.867188 C 184.574219 143.066406 184.964844 142.550781 185.371094 142.226562 C 185.855469 141.839844 186.578125 142.082031 186.730469 142.683594 " fill-opacity="1" fill-rule="nonzero"/><path fill="#000000" d="M 185.902344 142.480469 C 185.808594 142.480469 185.71875 142.511719 185.644531 142.574219 C 185.230469 142.90625 184.964844 143.367188 184.859375 143.945312 C 184.472656 146.066406 184.964844 149.0625 186.457031 150.402344 C 187.234375 151.105469 188.226562 151.285156 189.402344 150.941406 C 193.066406 149.863281 195.390625 148.40625 196.3125 146.601562 C 196.847656 145.5625 196.902344 144.417969 196.472656 143.207031 C 196.339844 142.828125 196.046875 142.535156 195.675781 142.402344 C 195.304688 142.269531 194.898438 142.308594 194.5625 142.511719 L 193.292969 143.285156 C 192.164062 143.96875 190.957031 144.527344 189.703125 144.945312 L 187.484375 145.683594 C 187.367188 145.722656 187.242188 145.710938 187.132812 145.648438 C 187.023438 145.589844 186.949219 145.488281 186.917969 145.367188 L 186.300781 142.789062 C 186.265625 142.652344 186.171875 142.546875 186.035156 142.503906 C 185.988281 142.488281 185.945312 142.480469 185.902344 142.480469 Z M 188.304688 151.988281 C 187.382812 151.988281 186.554688 151.675781 185.867188 151.058594 C 184.082031 149.453125 183.570312 146.113281 183.992188 143.785156 C 184.136719 142.996094 184.507812 142.355469 185.09375 141.882812 C 185.441406 141.605469 185.894531 141.527344 186.316406 141.667969 C 186.734375 141.804688 187.046875 142.144531 187.160156 142.574219 C 187.160156 142.574219 187.160156 142.578125 187.160156 142.578125 L 187.664062 144.695312 L 189.425781 144.109375 C 190.617188 143.710938 191.761719 143.179688 192.835938 142.53125 L 194.105469 141.761719 C 194.671875 141.417969 195.351562 141.347656 195.972656 141.570312 C 196.597656 141.796875 197.082031 142.285156 197.304688 142.914062 C 197.808594 144.34375 197.738281 145.757812 197.097656 147.003906 C 196.058594 149.03125 193.554688 150.640625 189.652344 151.785156 C 189.183594 151.921875 188.734375 151.988281 188.304688 151.988281 " fill-opacity="1" fill-rule="nonzero"/><path fill="#ffffff" d="M 229.164062 127.863281 C 230.082031 128.804688 231.128906 129.609375 232.269531 130.261719 C 236.121094 132.453125 245.324219 137.765625 247.613281 139.722656 C 250.53125 142.210938 251.925781 143.140625 249.582031 149.550781 C 245.761719 160.003906 227.945312 133.175781 227.945312 133.175781 C 227.945312 133.175781 222.710938 134.125 221.535156 129.539062 C 221.535156 129.539062 218.808594 130.050781 217.671875 129.558594 C 216.800781 129.179688 216.839844 127.699219 218 127.539062 L 225.527344 126.132812 C 226.566406 125.949219 227.628906 126.289062 228.363281 127.042969 L 229.164062 127.863281 " fill-opacity="1" fill-rule="nonzero"/><path fill="#000000" d="M 227.945312 132.734375 C 228.09375 132.734375 228.230469 132.808594 228.3125 132.933594 C 231.800781 138.1875 241.761719 151.527344 246.730469 151.527344 C 246.832031 151.527344 246.933594 151.523438 247.03125 151.511719 C 247.992188 151.398438 248.691406 150.707031 249.167969 149.398438 C 251.335938 143.46875 250.238281 142.535156 247.585938 140.273438 L 247.328125 140.054688 C 245.070312 138.125 235.890625 132.828125 232.050781 130.644531 C 230.875 129.972656 229.800781 129.140625 228.851562 128.171875 L 228.046875 127.347656 C 227.414062 126.699219 226.503906 126.40625 225.609375 126.566406 L 218.082031 127.96875 C 217.640625 128.03125 217.539062 128.324219 217.515625 128.492188 C 217.484375 128.726562 217.574219 129.035156 217.847656 129.152344 C 218.679688 129.511719 220.734375 129.238281 221.457031 129.105469 C 221.683594 129.0625 221.90625 129.203125 221.964844 129.425781 C 223.023438 133.570312 227.667969 132.777344 227.867188 132.742188 C 227.894531 132.738281 227.917969 132.734375 227.945312 132.734375 Z M 246.753906 152.40625 C 240.574219 152.410156 229.25 135.902344 227.730469 133.648438 C 226.59375 133.765625 222.476562 133.910156 221.222656 130.039062 C 220.382812 130.167969 218.492188 130.390625 217.496094 129.960938 C 216.902344 129.703125 216.550781 129.050781 216.640625 128.371094 C 216.734375 127.695312 217.246094 127.195312 217.941406 127.101562 L 225.449219 125.699219 C 226.632812 125.488281 227.839844 125.875 228.679688 126.734375 L 229.484375 127.554688 C 230.371094 128.464844 231.382812 129.246094 232.488281 129.875 C 236.351562 132.078125 245.582031 137.40625 247.898438 139.386719 L 248.15625 139.605469 C 250.964844 141.996094 252.375 143.195312 249.996094 149.703125 C 249.402344 151.328125 248.441406 152.230469 247.136719 152.386719 C 247.011719 152.402344 246.882812 152.40625 246.753906 152.40625 " fill-opacity="1" fill-rule="nonzero"/><path fill="#ffffff" d="M 211.726562 102.558594 L 211.160156 110.394531 C 211.039062 111.414062 210.304688 112.253906 209.3125 112.515625 L 206.554688 113.230469 L 208.34375 114.589844 C 212.300781 117.605469 217.789062 117.609375 221.753906 114.601562 L 224.578125 112.457031 L 221.160156 111.695312 C 220.175781 111.476562 219.421875 110.6875 219.242188 109.699219 L 217.730469 99.328125 L 211.726562 102.558594 " fill-opacity="1" fill-rule="nonzero"/><path fill="#000000" d="M 207.542969 113.429688 L 208.609375 114.242188 C 212.398438 117.125 217.691406 117.128906 221.484375 114.253906 L 223.554688 112.683594 L 221.0625 112.125 C 219.902344 111.867188 219.019531 110.945312 218.808594 109.777344 L 217.386719 100.011719 L 212.148438 102.832031 L 211.601562 110.425781 C 211.453125 111.65625 210.597656 112.632812 209.417969 112.941406 Z M 215.054688 117.289062 C 212.59375 117.289062 210.128906 116.503906 208.078125 114.941406 L 206.289062 113.582031 C 206.15625 113.480469 206.089844 113.308594 206.125 113.144531 C 206.160156 112.976562 206.285156 112.847656 206.445312 112.804688 L 209.199219 112.085938 C 210.023438 111.871094 210.621094 111.1875 210.726562 110.339844 L 211.285156 102.527344 C 211.296875 102.375 211.382812 102.242188 211.515625 102.167969 L 217.523438 98.9375 C 217.652344 98.871094 217.800781 98.871094 217.929688 98.933594 C 218.058594 98.996094 218.148438 99.121094 218.167969 99.261719 L 219.679688 109.632812 C 219.824219 110.4375 220.441406 111.085938 221.253906 111.265625 L 224.675781 112.027344 C 224.84375 112.066406 224.972656 112.199219 225.007812 112.363281 C 225.046875 112.53125 224.980469 112.707031 224.847656 112.808594 L 222.019531 114.953125 C 219.96875 116.511719 217.511719 117.289062 215.054688 117.289062 " fill-opacity="1" fill-rule="nonzero"/><path fill="#000000" d="M 202.820312 91.652344 C 204.703125 90.652344 203.1875 93.757812 209.382812 88.394531 C 211.851562 86.257812 211.941406 90.246094 212.582031 89.695312 C 214.949219 87.65625 214.867188 87.722656 216.363281 87.460938 C 217.355469 87.289062 218.675781 88.65625 219.070312 89.949219 C 219.589844 91.65625 218.457031 92.675781 218.84375 96.605469 C 219.117188 99.367188 219.984375 100.722656 219.1875 101.507812 C 218.382812 102.300781 217.074219 101.328125 216.132812 102.128906 C 214.910156 103.164062 216.304688 105.46875 215.402344 107.097656 C 214.832031 108.125 212.964844 109.335938 209.035156 109.242188 C 208.398438 109.226562 207.859375 108.757812 207.757812 108.128906 C 207.625 107.324219 207.460938 106.300781 207.386719 105.308594 C 207.035156 100.597656 208.050781 99.035156 207.050781 98.226562 C 205.519531 96.992188 202.921875 99.292969 201.816406 98.207031 C 200.667969 97.082031 200.238281 93.015625 202.820312 91.652344 " fill-opacity="1" fill-rule="nonzero"/><path fill="#ffffff" d="M 212.191406 94.292969 L 212.113281 95.582031 C 212.078125 96.1875 212.082031 96.792969 212.128906 97.402344 C 212.214844 98.539062 212.355469 100.492188 212.347656 101.59375 C 212.339844 103.210938 207.339844 103.527344 207.339844 103.527344 L 206.707031 102.820312 L 206.117188 102.847656 C 206.003906 102.851562 205.890625 102.832031 205.789062 102.78125 C 205.535156 102.648438 205.410156 102.378906 205.453125 102.117188 C 205.691406 100.6875 206.101562 97.535156 205.644531 95.082031 C 205.644531 95.082031 208.425781 92.824219 212.191406 94.292969 " fill-opacity="1" fill-rule="nonzero"/><path fill="#000000" d="M 206.707031 102.378906 C 206.832031 102.378906 206.949219 102.433594 207.03125 102.527344 L 207.523438 103.070312 C 209.425781 102.921875 211.902344 102.347656 211.90625 101.589844 C 211.914062 100.496094 211.773438 98.515625 211.691406 97.433594 C 211.644531 96.808594 211.636719 96.175781 211.675781 95.554688 L 211.734375 94.59375 C 208.949219 93.648438 206.78125 94.847656 206.128906 95.28125 C 206.511719 97.699219 206.148438 100.625 205.890625 102.1875 C 205.878906 102.25 205.898438 102.339844 205.992188 102.386719 C 206.015625 102.398438 206.054688 102.40625 206.101562 102.40625 L 206.6875 102.378906 C 206.691406 102.378906 206.699219 102.378906 206.707031 102.378906 Z M 207.339844 103.96875 C 207.214844 103.96875 207.097656 103.914062 207.011719 103.820312 L 206.515625 103.269531 L 206.136719 103.285156 C 205.9375 103.292969 205.746094 103.253906 205.585938 103.167969 C 205.171875 102.953125 204.945312 102.5 205.019531 102.042969 C 205.230469 100.78125 205.667969 97.585938 205.214844 95.164062 C 205.183594 95.003906 205.246094 94.84375 205.371094 94.742188 C 205.492188 94.640625 208.394531 92.339844 212.351562 93.882812 C 212.53125 93.953125 212.644531 94.128906 212.632812 94.320312 L 212.554688 95.605469 C 212.519531 96.1875 212.523438 96.78125 212.570312 97.367188 C 212.652344 98.464844 212.796875 100.46875 212.789062 101.597656 C 212.777344 103.527344 208.269531 103.910156 207.367188 103.964844 C 207.359375 103.96875 207.347656 103.96875 207.339844 103.96875 " fill-opacity="1" fill-rule="nonzero"/><path fill="#ffffff" d="M 213.070312 98.261719 C 213.070312 98.261719 213.253906 95.164062 214.640625 95.554688 C 216.03125 95.949219 215.742188 99.351562 213.070312 98.261719 " fill-opacity="1" fill-rule="nonzero"/><path fill="#ffffff" d="M 243.816406 57.304688 C 244.808594 68.816406 236.28125 78.957031 224.769531 79.953125 C 213.257812 80.945312 203.117188 72.417969 202.121094 60.902344 C 201.128906 49.390625 209.65625 39.25 221.171875 38.257812 C 232.683594 37.261719 242.820312 45.789062 243.816406 57.304688 " fill-opacity="1" fill-rule="nonzero"/><path fill="#000000" d="M 223.003906 38.617188 C 222.40625 38.617188 221.808594 38.644531 221.207031 38.695312 C 209.953125 39.667969 201.589844 49.613281 202.5625 60.867188 C 203.03125 66.316406 205.597656 71.257812 209.785156 74.78125 C 213.972656 78.300781 219.277344 79.980469 224.730469 79.511719 C 230.179688 79.039062 235.125 76.476562 238.644531 72.289062 C 242.167969 68.101562 243.847656 62.792969 243.378906 57.339844 C 242.90625 51.890625 240.339844 46.949219 236.152344 43.425781 C 232.429688 40.292969 227.8125 38.617188 223.003906 38.617188 Z M 222.933594 80.46875 C 217.914062 80.46875 213.101562 78.722656 209.21875 75.457031 C 204.847656 71.78125 202.175781 66.628906 201.683594 60.941406 C 200.671875 49.203125 209.394531 38.832031 221.132812 37.816406 C 226.816406 37.328125 232.351562 39.078125 236.71875 42.753906 C 241.089844 46.425781 243.761719 51.582031 244.253906 57.265625 C 244.746094 62.949219 242.992188 68.488281 239.320312 72.855469 C 235.648438 77.222656 230.492188 79.898438 224.808594 80.390625 C 224.179688 80.445312 223.554688 80.46875 222.933594 80.46875 " fill-opacity="1" fill-rule="nonzero"/><path fill="#caddff" d="M 241.804688 57.476562 C 242.707031 67.882812 235 77.042969 224.59375 77.941406 C 214.191406 78.839844 205.03125 71.136719 204.128906 60.730469 C 203.234375 50.328125 210.9375 41.164062 221.339844 40.265625 C 231.746094 39.367188 240.910156 47.074219 241.804688 57.476562 " fill-opacity="1" fill-rule="nonzero"/><path fill="#ffffff" d="M 239.632812 57.667969 C 240.425781 66.867188 233.609375 74.972656 224.40625 75.769531 C 215.203125 76.5625 207.097656 69.746094 206.304688 60.542969 C 205.507812 51.34375 212.324219 43.238281 221.53125 42.441406 C 230.730469 41.648438 238.835938 48.460938 239.632812 57.667969 " fill-opacity="1" fill-rule="nonzero"/><path fill="#000000" d="M 222.953125 76.800781 C 213.878906 76.800781 206.132812 69.832031 205.339844 60.625 C 204.5 50.90625 211.726562 42.3125 221.445312 41.476562 C 227.308594 40.96875 233.027344 43.402344 236.734375 47.984375 C 236.886719 48.171875 236.859375 48.453125 236.667969 48.605469 C 236.480469 48.757812 236.203125 48.730469 236.050781 48.539062 C 232.527344 44.183594 227.097656 41.871094 221.523438 42.355469 C 212.285156 43.152344 205.421875 51.3125 206.21875 60.550781 C 206.972656 69.296875 214.335938 75.917969 222.953125 75.917969 C 223.4375 75.917969 223.925781 75.898438 224.417969 75.855469 C 228.886719 75.46875 232.945312 73.363281 235.835938 69.925781 C 238.726562 66.488281 240.105469 62.132812 239.71875 57.65625 C 239.699219 57.414062 239.878906 57.203125 240.121094 57.179688 C 240.359375 57.160156 240.574219 57.339844 240.597656 57.582031 C 241.003906 62.292969 239.554688 66.875 236.511719 70.496094 C 233.46875 74.113281 229.199219 76.328125 224.492188 76.734375 C 223.976562 76.777344 223.460938 76.800781 222.953125 76.800781 " fill-opacity="1" fill-rule="nonzero"/><path fill="#5479f7" d="M 222.535156 69.144531 L 222.335938 66.832031 C 220.703125 66.898438 219.082031 66.597656 218.113281 66.140625 L 218.59375 63.230469 C 219.664062 63.703125 221.144531 64.089844 222.726562 63.953125 C 224.113281 63.835938 225.019531 63.21875 224.929688 62.242188 C 224.851562 61.320312 224.023438 60.800781 222.171875 60.347656 C 219.492188 59.699219 217.609375 58.636719 217.40625 56.273438 C 217.222656 54.132812 218.582031 52.324219 221.140625 51.589844 L 220.945312 49.277344 L 223.328125 49.070312 L 223.511719 51.210938 C 225.152344 51.144531 226.277344 51.390625 227.113281 51.710938 L 226.644531 54.519531 C 225.988281 54.308594 224.820312 53.84375 223.070312 53.996094 C 221.488281 54.132812 221.035156 54.859375 221.09375 55.539062 C 221.164062 56.34375 222.058594 56.777344 224.191406 57.378906 C 227.179688 58.152344 228.460938 59.390625 228.652344 61.578125 C 228.835938 63.746094 227.464844 65.726562 224.707031 66.453125 L 224.921875 68.9375 L 222.535156 69.144531 " fill-opacity="1" fill-rule="nonzero"/><path fill="#ffffff" d="M 204.421875 36.476562 C 204.128906 46.121094 196.070312 53.707031 186.425781 53.410156 C 176.777344 53.121094 169.195312 45.0625 169.488281 35.417969 C 169.78125 25.769531 177.839844 18.1875 187.484375 18.480469 C 197.132812 18.773438 204.714844 26.832031 204.421875 36.476562 " fill-opacity="1" fill-rule="nonzero"/><path fill="#000000" d="M 186.941406 18.914062 C 182.585938 18.914062 178.464844 20.546875 175.28125 23.542969 C 171.96875 26.660156 170.066406 30.882812 169.929688 35.429688 C 169.644531 44.816406 177.046875 52.6875 186.4375 52.972656 C 190.988281 53.109375 195.3125 51.46875 198.628906 48.351562 C 201.941406 45.234375 203.84375 41.011719 203.980469 36.464844 C 204.117188 31.914062 202.480469 27.585938 199.359375 24.273438 C 196.242188 20.960938 192.019531 19.058594 187.472656 18.917969 C 187.292969 18.914062 187.117188 18.914062 186.941406 18.914062 Z M 186.96875 53.859375 C 186.78125 53.859375 186.597656 53.859375 186.410156 53.851562 C 176.535156 53.554688 168.75 45.277344 169.046875 35.402344 C 169.191406 30.621094 171.191406 26.179688 174.675781 22.898438 C 178.160156 19.621094 182.710938 17.894531 187.5 18.039062 C 192.28125 18.183594 196.722656 20.183594 200 23.667969 C 203.28125 27.152344 205.007812 31.707031 204.859375 36.492188 C 204.714844 41.273438 202.714844 45.714844 199.230469 48.992188 C 195.882812 52.144531 191.546875 53.859375 186.96875 53.859375 " fill-opacity="1" fill-rule="nonzero"/><path fill="#caddff" d="M 202.738281 36.425781 C 202.472656 45.144531 195.191406 51.996094 186.476562 51.730469 C 177.757812 51.46875 170.90625 44.183594 171.171875 35.46875 C 171.433594 26.75 178.714844 19.898438 187.433594 20.164062 C 196.148438 20.429688 203.003906 27.710938 202.738281 36.425781 " fill-opacity="1" fill-rule="nonzero"/><path fill="#ffffff" d="M 200.914062 36.371094 C 200.679688 44.082031 194.238281 50.144531 186.53125 49.910156 C 178.820312 49.675781 172.757812 43.234375 172.992188 35.523438 C 173.226562 27.816406 179.667969 21.753906 187.378906 21.988281 C 195.089844 22.222656 201.148438 28.664062 200.914062 36.371094 " fill-opacity="1" fill-rule="nonzero"/><path fill="#000000" d="M 186.957031 50.796875 C 186.808594 50.796875 186.65625 50.796875 186.503906 50.789062 C 178.316406 50.542969 171.859375 43.683594 172.109375 35.496094 C 172.230469 31.53125 173.886719 27.851562 176.777344 25.132812 C 179.664062 22.414062 183.433594 20.984375 187.402344 21.105469 C 192.34375 21.253906 196.871094 23.839844 199.515625 28.023438 C 199.644531 28.230469 199.582031 28.5 199.375 28.628906 C 199.171875 28.761719 198.898438 28.699219 198.769531 28.492188 C 196.28125 24.558594 192.023438 22.125 187.378906 21.984375 C 183.65625 21.875 180.097656 23.21875 177.378906 25.773438 C 174.664062 28.332031 173.105469 31.792969 172.992188 35.523438 C 172.757812 43.222656 178.832031 49.675781 186.53125 49.910156 C 194.222656 50.144531 200.683594 44.070312 200.917969 36.371094 C 200.925781 36.128906 201.125 35.9375 201.371094 35.945312 C 201.613281 35.953125 201.804688 36.15625 201.796875 36.398438 C 201.550781 44.429688 194.941406 50.796875 186.957031 50.796875 " fill-opacity="1" fill-rule="nonzero"/><path fill="#5479f7" d="M 185.621094 44.230469 L 185.679688 42.296875 C 184.316406 42.195312 183.003906 41.785156 182.238281 41.3125 L 182.921875 38.945312 C 183.765625 39.441406 184.957031 39.90625 186.28125 39.945312 C 187.441406 39.984375 188.25 39.558594 188.277344 38.742188 C 188.300781 37.96875 187.664062 37.457031 186.167969 36.902344 C 184.011719 36.101562 182.554688 35.039062 182.613281 33.058594 C 182.667969 31.265625 183.972656 29.898438 186.167969 29.535156 L 186.226562 27.597656 L 188.226562 27.660156 L 188.171875 29.453125 C 189.535156 29.558594 190.445312 29.871094 191.105469 30.21875 L 190.445312 32.503906 C 189.921875 32.261719 189 31.765625 187.53125 31.71875 C 186.207031 31.679688 185.761719 32.238281 185.742188 32.808594 C 185.722656 33.480469 186.421875 33.929688 188.136719 34.636719 C 190.535156 35.566406 191.480469 36.71875 191.425781 38.554688 C 191.371094 40.367188 190.039062 41.875 187.683594 42.214844 L 187.617188 44.292969 L 185.621094 44.230469 " fill-opacity="1" fill-rule="nonzero"/><path fill="#000000" d="M 31.613281 46.496094 C 31.503906 46.496094 31.394531 46.457031 31.308594 46.375 C 31.132812 46.207031 31.125 45.929688 31.292969 45.753906 L 32.375 44.625 C 32.542969 44.449219 32.824219 44.445312 33 44.613281 C 33.175781 44.78125 33.179688 45.058594 33.011719 45.234375 L 31.929688 46.363281 C 31.84375 46.453125 31.726562 46.496094 31.613281 46.496094 " fill-opacity="1" fill-rule="nonzero"/><path fill="#000000" d="M 27.832031 50.4375 C 27.722656 50.4375 27.609375 50.398438 27.527344 50.316406 C 27.351562 50.148438 27.34375 49.867188 27.511719 49.695312 L 28.59375 48.566406 C 28.761719 48.390625 29.042969 48.386719 29.214844 48.554688 C 29.390625 48.722656 29.398438 49 29.230469 49.175781 L 28.148438 50.300781 C 28.0625 50.390625 27.945312 50.4375 27.832031 50.4375 " fill-opacity="1" fill-rule="nonzero"/><path fill="#000000" d="M 28.890625 46.558594 C 28.777344 46.558594 28.667969 46.515625 28.582031 46.433594 L 27.484375 45.355469 C 27.3125 45.183594 27.308594 44.902344 27.480469 44.730469 C 27.648438 44.554688 27.929688 44.554688 28.101562 44.726562 L 29.199219 45.804688 C 29.371094 45.972656 29.375 46.253906 29.203125 46.425781 C 29.117188 46.511719 29.003906 46.558594 28.890625 46.558594 " fill-opacity="1" fill-rule="nonzero"/><path fill="#000000" d="M 32.730469 50.328125 C 32.617188 50.328125 32.507812 50.289062 32.421875 50.203125 L 31.324219 49.125 C 31.152344 48.957031 31.148438 48.675781 31.320312 48.503906 C 31.488281 48.328125 31.769531 48.328125 31.941406 48.496094 L 33.039062 49.574219 C 33.210938 49.746094 33.214844 50.023438 33.042969 50.199219 C 32.957031 50.285156 32.84375 50.328125 32.730469 50.328125 " fill-opacity="1" fill-rule="nonzero"/><path fill="#000000" d="M 197.15625 79.488281 C 196.917969 79.488281 196.71875 79.296875 196.714844 79.058594 L 196.679688 77.5 C 196.675781 77.253906 196.871094 77.054688 197.113281 77.050781 C 197.117188 77.050781 197.117188 77.050781 197.121094 77.050781 C 197.359375 77.050781 197.558594 77.238281 197.5625 77.480469 L 197.597656 79.039062 C 197.601562 79.28125 197.40625 79.484375 197.164062 79.488281 C 197.164062 79.488281 197.160156 79.488281 197.15625 79.488281 " fill-opacity="1" fill-rule="nonzero"/><path fill="#000000" d="M 197.273438 84.945312 C 197.035156 84.945312 196.839844 84.757812 196.832031 84.515625 L 196.800781 82.957031 C 196.792969 82.714844 196.988281 82.511719 197.230469 82.503906 C 197.234375 82.503906 197.234375 82.503906 197.238281 82.503906 C 197.476562 82.503906 197.675781 82.699219 197.679688 82.9375 L 197.714844 84.496094 C 197.71875 84.738281 197.523438 84.941406 197.285156 84.945312 C 197.28125 84.945312 197.277344 84.945312 197.273438 84.945312 " fill-opacity="1" fill-rule="nonzero"/><path fill="#000000" d="M 193.734375 81.464844 C 193.492188 81.464844 193.296875 81.269531 193.292969 81.027344 C 193.292969 80.785156 193.488281 80.585938 193.730469 80.585938 L 195.273438 80.570312 C 195.515625 80.570312 195.710938 80.765625 195.714844 81.007812 C 195.714844 81.25 195.519531 81.449219 195.277344 81.453125 L 193.738281 81.464844 C 193.738281 81.464844 193.734375 81.464844 193.734375 81.464844 " fill-opacity="1" fill-rule="nonzero"/><path fill="#000000" d="M 199.121094 81.421875 C 198.878906 81.421875 198.683594 81.230469 198.679688 80.984375 C 198.679688 80.742188 198.875 80.542969 199.117188 80.542969 L 200.65625 80.53125 C 200.660156 80.53125 200.660156 80.53125 200.660156 80.53125 C 200.902344 80.53125 201.097656 80.726562 201.101562 80.96875 C 201.101562 81.210938 200.910156 81.410156 200.664062 81.410156 L 199.125 81.421875 C 199.125 81.421875 199.121094 81.421875 199.121094 81.421875 " fill-opacity="1" fill-rule="nonzero"/><path fill="#000000" d="M 55.054688 134.144531 C 54.945312 134.144531 54.835938 134.105469 54.75 134.023438 C 54.574219 133.855469 54.570312 133.574219 54.738281 133.398438 L 55.816406 132.273438 C 55.984375 132.097656 56.265625 132.09375 56.441406 132.261719 C 56.617188 132.429688 56.621094 132.707031 56.453125 132.882812 L 55.371094 134.007812 C 55.285156 134.101562 55.171875 134.144531 55.054688 134.144531 " fill-opacity="1" fill-rule="nonzero"/><path fill="#000000" d="M 51.273438 138.085938 C 51.164062 138.085938 51.054688 138.046875 50.96875 137.964844 C 50.792969 137.796875 50.785156 137.519531 50.953125 137.34375 L 52.035156 136.214844 C 52.203125 136.039062 52.484375 136.035156 52.660156 136.203125 C 52.835938 136.371094 52.839844 136.648438 52.671875 136.824219 L 51.589844 137.953125 C 51.503906 138.042969 51.386719 138.085938 51.273438 138.085938 " fill-opacity="1" fill-rule="nonzero"/><path fill="#000000" d="M 52.332031 134.207031 C 52.222656 134.207031 52.109375 134.164062 52.023438 134.082031 L 50.925781 133 C 50.753906 132.832031 50.75 132.550781 50.921875 132.378906 C 51.09375 132.203125 51.371094 132.203125 51.542969 132.371094 L 52.640625 133.449219 C 52.816406 133.621094 52.816406 133.902344 52.648438 134.074219 C 52.5625 134.164062 52.445312 134.207031 52.332031 134.207031 " fill-opacity="1" fill-rule="nonzero"/><path fill="#000000" d="M 56.171875 137.980469 C 56.0625 137.980469 55.949219 137.9375 55.863281 137.851562 L 54.765625 136.773438 C 54.59375 136.605469 54.589844 136.324219 54.761719 136.152344 C 54.933594 135.976562 55.210938 135.976562 55.382812 136.144531 L 56.480469 137.222656 C 56.65625 137.394531 56.65625 137.671875 56.488281 137.847656 C 56.402344 137.933594 56.285156 137.980469 56.171875 137.980469 " fill-opacity="1" fill-rule="nonzero"/><path fill="#000000" d="M 43.15625 36.8125 C 43.015625 36.8125 42.875 36.746094 42.789062 36.621094 C 42.652344 36.417969 42.703125 36.144531 42.90625 36.007812 C 62.703125 22.480469 82.074219 23.046875 91.863281 24.589844 C 92.101562 24.628906 92.265625 24.855469 92.226562 25.09375 C 92.191406 25.335938 91.964844 25.5 91.722656 25.460938 C 82.066406 23.9375 62.949219 23.378906 43.402344 36.734375 C 43.328125 36.785156 43.238281 36.8125 43.15625 36.8125 " fill-opacity="1" fill-rule="nonzero"/><path fill="#000000" d="M 62.289062 33.175781 C 62.109375 33.175781 61.9375 33.058594 61.875 32.878906 C 61.792969 32.652344 61.914062 32.398438 62.144531 32.320312 C 83.230469 24.914062 100.757812 30.730469 100.933594 30.789062 C 101.164062 30.867188 101.285156 31.121094 101.207031 31.347656 C 101.128906 31.578125 100.878906 31.703125 100.648438 31.625 C 100.476562 31.566406 83.222656 25.851562 62.4375 33.148438 C 62.386719 33.164062 62.339844 33.175781 62.289062 33.175781 " fill-opacity="1" fill-rule="nonzero"/></svg>